<svg width="24" height="24" viewBox="0 0 24 24" fill="none" xmlns="http://www.w3.org/2000/svg">
<path fill-rule="evenodd" clip-rule="evenodd" d="M5 3C3.89543 3 3 3.89543 3 5C3 6.10457 3.89543 7 5 7C6.10457 7 7 6.10457 7 5C7 3.89543 6.10457 3 5 3ZM1 5C1 2.79086 2.79086 1 5 1C7.20914 1 9 2.79086 9 5C9 7.20914 7.20914 9 5 9C2.79086 9 1 7.20914 1 5Z" fill="black"/>
<path fill-rule="evenodd" clip-rule="evenodd" d="M19 17C17.8954 17 17 17.8954 17 19C17 20.1046 17.8954 21 19 21C20.1046 21 21 20.1046 21 19C21 17.8954 20.1046 17 19 17ZM15 19C15 16.7909 16.7909 15 19 15C21.2091 15 23 16.7909 23 19C23 21.2091 21.2091 23 19 23C16.7909 23 15 21.2091 15 19Z" fill="black"/>
<path fill-rule="evenodd" clip-rule="evenodd" d="M9.99994 5C9.99994 4.44772 10.4476 4 10.9999 4H17.2999C20.3976 4 21.5145 8.05261 18.7903 9.5715L7.18562 16.1742C6.31587 16.6574 6.59948 18 7.69995 18H12.9999C13.5522 18 13.9999 18.4477 13.9999 19C13.9999 19.5523 13.5522 20 12.9999 20H7.69995C4.60225 20 3.48538 15.9474 6.2095 14.4285L17.8142 7.8258C18.684 7.3426 18.4004 6 17.2999 6H10.9999C10.4476 6 9.99994 5.55228 9.99994 5Z" fill="black"/>
</svg>
