<svg width="27" height="25" viewBox="0 0 27 25" fill="none" xmlns="http://www.w3.org/2000/svg">
<path d="M25 5.94444V2.77778C25 1.25 23.75 0 22.2222 0H2.77778C1.23611 0 0 1.25 0 2.77778V22.2222C0 23.75 1.23611 25 2.77778 25H22.2222C23.75 25 25 23.75 25 22.2222V19.0556C25.8194 18.5694 26.3889 17.6944 26.3889 16.6667V8.33333C26.3889 7.30556 25.8194 6.43056 25 5.94444ZM23.6111 8.33333V16.6667H13.8889V8.33333H23.6111ZM2.77778 22.2222V2.77778H22.2222V5.55556H13.8889C12.3611 5.55556 11.1111 6.80556 11.1111 8.33333V16.6667C11.1111 18.1944 12.3611 19.4444 13.8889 19.4444H22.2222V22.2222H2.77778Z" fill="black"/>
<path d="M18.0555 14.5832C19.2061 14.5832 20.1388 13.6504 20.1388 12.4998C20.1388 11.3492 19.2061 10.4165 18.0555 10.4165C16.9049 10.4165 15.9722 11.3492 15.9722 12.4998C15.9722 13.6504 16.9049 14.5832 18.0555 14.5832Z" fill="black"/>
</svg>
