<svg width="89" height="33" viewBox="0 0 89 33" fill="none" xmlns="http://www.w3.org/2000/svg">
<path fill-rule="evenodd" clip-rule="evenodd" d="M79.9889 15.4781C79.9889 13.1321 81.2365 11.8488 82.7443 11.8488C83.569 11.8291 84.4742 12.2697 84.9971 13.1124V17.1618C84.4547 18.4648 83.569 19.0466 82.5231 19.0466C81.0552 19.0466 79.9889 17.5435 79.9889 15.4781ZM67.6499 1.2834C67.388 1.74455 67.6296 2.20569 67.9516 2.38625C68.1525 2.50596 68.2525 2.72673 68.1127 2.96715C67.8711 3.36839 68.0118 3.82957 68.3941 4.05034C68.6949 4.23081 69.0179 4.17006 69.1993 4.06995C69.6204 3.86978 69.9824 3.52925 70.4053 3.76967C70.546 3.84923 70.646 4.01009 70.646 4.17006C70.646 4.67145 70.1434 4.81171 69.7612 5.07268C69.601 5.17279 69.3798 5.43376 69.3798 5.77514C69.3798 6.21578 69.7213 6.55626 70.1841 6.55626C70.4655 6.55626 70.6061 6.73678 70.6061 6.99685C70.6061 7.35878 70.8884 7.79937 71.4308 7.79937C71.9538 7.79937 72.2351 7.35878 72.2351 6.99685C72.2351 6.73678 72.3758 6.55621 72.6581 6.55621C73.12 6.55621 73.4624 6.21573 73.4624 5.77514C73.4624 5.43376 73.2412 5.17279 73.0802 5.07268C72.6988 4.81176 72.1953 4.67145 72.1953 4.17006C72.1953 4.01009 72.2962 3.84923 72.4369 3.76967C72.8589 3.5293 73.2412 3.86973 73.6438 4.06995C73.8243 4.17006 74.1455 4.23081 74.4472 4.0503C74.8304 3.82953 74.971 3.36839 74.7304 2.96711C74.5888 2.72673 74.6897 2.50596 74.8896 2.38625C75.2126 2.20569 75.4533 1.74459 75.1923 1.2834C74.9109 0.823161 74.4074 0.80261 74.0862 0.983127C73.865 1.10379 73.6235 1.08319 73.5031 0.842815C73.2607 0.441532 72.7988 0.321771 72.4165 0.542537C72.1157 0.701605 71.9945 1.02243 71.9945 1.22355C71.9538 1.68469 72.075 2.18514 71.652 2.42645C71.5114 2.50596 71.3308 2.50596 71.1902 2.42645C70.7672 2.18514 70.8884 1.68469 70.8477 1.22355C70.8477 1.02243 70.7274 0.701605 70.4248 0.542537C70.0434 0.321771 69.5807 0.441577 69.3595 0.842815C69.2187 1.08323 68.9781 1.10379 68.756 0.983127C68.4339 0.80261 67.9313 0.823161 67.6499 1.2834ZM60.1775 15.2171C60.3386 12.7514 61.7666 11.8488 62.7922 11.8488C63.4364 11.8488 63.9593 12.2098 63.9593 12.8515C63.9593 14.2349 62.2295 15.1367 60.1775 15.2171ZM46.4404 4.29071H46.9235C47.4261 4.29071 47.6066 4.55169 47.6066 5.05218V17.2628C47.6066 19.3478 48.8144 20.6508 51.8105 20.6508C54.365 20.6508 55.8135 19.3478 55.8135 17.1421V15.6184C56.2355 15.7587 56.678 15.899 57.1814 15.9991C57.2611 18.3853 59.0112 20.6508 62.2498 20.6508C64.7034 20.6508 66.3527 18.9465 67.1774 17.0018L66.7146 16.6006C65.6678 18.1645 64.4618 18.9867 63.0337 18.9867C61.6065 18.9867 60.3987 18.0645 60.1775 16.2404C64.8848 16.0187 66.7748 12.1097 68.0826 12.1097C68.3436 12.1097 68.6055 12.2304 68.6055 12.7514V20.4703H72.5882V19.5676H71.9838C71.6015 19.5676 71.4202 19.3273 71.4202 18.6659V15.0366C71.4202 14.0741 72.1652 12.7514 72.728 12.5914C72.8492 13.0722 73.4323 13.6933 74.4773 13.6933C76.4292 13.6933 77.7573 11.5082 77.7573 9.8844C77.7573 7.93968 76.792 7.27837 76.369 7.27837C75.8656 7.27837 75.7257 7.67871 75.7257 7.93968C77.0327 7.93968 76.892 10.5261 75.8656 10.5261C75.202 10.5261 75.1019 9.64398 74.0561 9.64398C73.15 9.64398 72.4669 10.1856 72.4669 11.3679C72.0838 11.6289 71.5617 12.2098 71.4414 12.3501H71.4202V12.2304C71.4202 11.0668 70.6371 10.2856 69.4496 10.2856C67.7198 10.2856 66.6951 11.5681 65.3466 12.8318C65.367 12.7112 65.3874 12.5914 65.3874 12.4708C65.3874 11.1472 64.1999 10.2857 62.6311 10.2857C59.635 10.2857 57.6035 12.2903 57.2416 14.9767C56.6373 14.8364 56.1948 14.6764 55.8135 14.495V10.4456H52.5546V12.2098C52.5546 13.032 53.1784 14.1152 54.5057 14.957V16.8812C54.5057 18.5256 53.7208 19.1664 52.4334 19.1664C51.0062 19.1664 50.4231 18.3647 50.4231 17.1421V3.38898H46.4404V4.29071ZM32.5822 4.29071H33.0662C33.5679 4.29071 33.7493 4.55169 33.7493 5.05218V18.2852C33.7493 19.4273 34.3935 20.4703 35.9419 20.4703H43.0214C45.0928 20.4703 46.3405 19.3478 46.3405 17.4827C46.3405 15.7587 45.153 15.0974 43.9266 14.4351C42.6197 13.7336 41.3712 13.3734 41.3712 12.6709C41.3712 12.2903 41.6738 11.9891 42.3375 11.9891C43.3232 11.9891 44.469 12.5914 45.153 13.293L46.7625 10.4456H41.4323C39.7626 10.4456 38.7371 11.4484 38.7371 12.8318C38.7371 14.5558 40.044 15.2377 42.2569 16.3602C43.1214 16.8007 43.8257 17.1618 43.8257 17.9241C43.8257 18.5658 43.4638 19.0261 42.5383 19.0261C40.5271 19.0261 39.2803 16.0992 39.2803 16.0992H38.6371V19.4479H37.2081C36.686 19.4479 36.5648 19.187 36.5648 18.6856V3.38898H32.5822V4.29071ZM18.262 29.6924C21.2784 29.4922 24.5178 30.3546 26.7095 33C28.158 31.5772 33.1458 27.2463 43.0621 27.2463C52.4334 27.2463 61.8277 30.856 69.3293 30.856C75.6443 30.856 78.6015 27.8281 79.1235 24.4392C79.8482 25.4017 81.2763 26.2641 82.885 26.2043C86.0226 26.2043 87.8135 23.6581 87.8135 20.8107V12.2501C87.8135 11.6084 87.9542 11.3483 88.4771 11.3483H89V10.4457H86.1641C85.4607 10.4457 85.1581 10.7469 85.0378 11.2482C84.4334 10.7272 83.5689 10.2857 82.3018 10.2857C79.4863 10.2857 76.8717 12.0097 76.8717 15.6792C76.8717 18.6061 78.843 20.6509 81.7594 20.6509C83.1469 20.6509 84.2733 19.9886 84.9971 19.1074V21.0513C84.9971 23.7377 83.9113 24.7807 82.1417 24.7807C80.3508 24.7807 79.1447 23.5974 79.104 22.1344H78.2591C78.3405 26.4849 76.0868 28.9507 69.7921 28.9507C60.5199 28.9507 52.1122 22.4955 38.1743 22.4955C25.784 22.4955 18.262 29.6924 18.262 29.6924ZM12.7514 15.4781C12.7514 13.1321 13.9981 11.8488 15.5068 11.8488C16.2509 11.8291 17.0552 12.1901 17.5781 12.8515V17.5434C17.0154 18.5855 16.2305 19.0466 15.2855 19.0466C13.7964 19.0466 12.7514 17.5434 12.7514 15.4781ZM9.63322 15.6791C9.63322 18.6061 11.6046 20.6508 14.5219 20.6508C15.8687 20.6508 16.9747 20.0092 17.7188 19.1664C18.0409 20.0091 18.9257 20.6508 20.053 20.6508C22.0634 20.6508 23.4517 19.1074 24.1348 17.1421V20.4703H28.1369V19.5676H27.6148C27.0919 19.5676 26.9512 19.3067 26.9512 18.665V15.1975C26.9512 13.3734 28.5005 11.468 30.1897 11.468C30.6728 11.468 30.994 11.7496 30.994 12.1097C30.994 12.4305 30.7727 12.6709 30.4303 12.6709C30.049 12.6709 29.9879 12.2903 29.8278 12.2903C29.3049 12.2903 28.6607 12.771 28.6607 13.6934C28.6607 14.5352 29.4243 15.2573 30.471 15.2573C31.8983 15.2573 32.8238 14.0741 32.8238 12.6513C32.8238 11.3081 31.7585 10.2857 30.4303 10.2857C29.0022 10.2857 27.6148 11.2071 26.9512 12.2304V11.7496C26.9512 10.9675 26.5689 10.4456 25.7841 10.4456H22.827V11.3483H23.4712C23.8737 11.3483 24.1348 11.6084 24.1348 12.2501V14.7962C23.5923 17.102 22.4252 19.0467 21.1989 19.0467C20.7972 19.0467 20.3937 18.8465 20.3937 18.3255V12.25C20.3937 11.6083 20.5149 11.3483 21.0379 11.3483H21.5608V10.4456H18.7452C18.202 10.4456 17.8401 10.7066 17.679 11.1472C17.0747 10.6664 16.2306 10.2857 15.0449 10.2857C12.2284 10.2857 9.63322 12.0096 9.63322 15.6791ZM0 12.5914C0 20.3899 5.85227 26.6252 14.3201 26.6252C19.6902 26.6252 22.7676 24.079 24.0755 22.5955L23.633 22.1343C22.3456 23.297 19.9123 24.9406 16.1509 24.9406C9.63317 24.9406 6.23455 20.1297 6.23455 15.1974C6.23455 8.84141 10.8003 5.85465 14.9643 5.85465C17.4383 5.85465 19.0062 6.49631 20.5759 7.79937C22.0439 5.19245 23.5313 2.60697 25.0001 0H6.89814C3.9021 1.56403 0 6.49636 0 12.5914Z" fill="#00682F"/>
</svg>
